<svg width="248" height="211" fill="none" xmlns="http://www.w3.org/2000/svg"><path opacity=".2" d="M68.359 120.571c12.718 0 22.786 4.231 30.205 12.692 7.949 7.932 11.923 18.509 11.923 31.729 0 14.279-4.769 25.648-14.307 34.11C87.17 207.034 74.718 211 58.82 211c-18.547 0-33.12-7.139-43.717-21.417C5.034 175.305 0 154.945 0 128.504c0-23.797 5.3-45.743 15.897-65.839C26.496 42.041 42.393 21.417 63.59.793 64.12.264 64.915 0 65.974 0c1.59 0 2.915.793 3.975 2.38 1.06 1.586 1.06 2.908 0 3.966C43.983 32.786 31 63.987 31 99.947c0 14.807 2.65 25.648 7.949 32.523 4.769-7.932 14.572-11.899 29.41-11.899Zm137.513 0c12.718 0 22.786 4.231 30.205 12.692 7.949 7.932 11.923 18.509 11.923 31.729 0 14.279-4.769 25.648-14.308 34.11-9.008 7.932-21.461 11.898-37.359 11.898-18.547 0-33.119-7.139-43.718-21.417-10.068-14.278-15.102-34.638-15.102-61.079 0-23.797 5.299-45.743 15.897-65.839 10.599-20.624 26.496-41.248 47.693-61.872.529-.529 1.324-.793 2.384-.793 1.59 0 2.915.793 3.975 2.38 1.059 1.586 1.059 2.908 0 3.966-25.966 26.44-38.949 57.641-38.949 93.601 0 14.807 2.649 25.648 7.949 32.523 4.769-7.932 14.572-11.899 29.41-11.899Z" fill="#E9D6C7"/></svg>